# xmcd
#
# Track frame offsets:
#	150
#	11898
#	24530
#	37953
#	51846
#	64131
#	74213
#	86279
#	100567
#	125162
#	137893
#	151039
#	164158
#	178042
#	190187
#	202969
#	216612
#	230951
#	242729
#	257244
#	268913
#	281909
#	297885
#	312288
#
# Disc length: 4334 seconds
#
# Revision: 0
# Processed by: cddbd v1.5.2PL0 Copyright (c) Steve Scherf et al.
# Submitted via: EasyCDDAExtractor 12.0.4.1
#
DISCID=7d10ec18
DTITLE=Various Artist - Teachin'the blues
DYEAR=1900
DGENRE=
TTITLE0=Willie and the Hand jive - The original Otis johnny otis Show
TTITLE1=Elmore James - The Sky is crying
TTITLE2=Bobby 'blue' Bland - Further On Up the Road
TTITLE3=Otis Rush - Groaning The Blues
TTITLE4=Little Walter  - Last night
TTITLE5=Jimmy Reed - Ain't that loving you baby
TTITLE6=Eddie Boyd - Five Long Years
TTITLE7=Lowell Fulson - Reconsider Baby
TTITLE8=Muddy Watters - Rollin' and Tumblin'
TTITLE9=Elmore James - Talk to me Baby
TTITLE10=Ray Charles - Hard times
TTITLE11=Big Bill Broonzy - Hey,Hey
TTITLE12=BO Diddley - Before you accuse me
TTITLE13=The Original Otis Show - Crazy Country Hop
TTITLE14=Big Mama Thornton - Hounf Dog
TTITLE15=Sonny Boy Williamson - Early in The Morning
TTITLE16=Muddy Watters - Blow'Wind,Blow
TTITLE17=Robert Johnson  - Steady Rollin' Man
TTITLE18=Johnny Moore's Three Blazers - Drifting Blues
TTITLE19=Arthur "Big Boy" Crudup - Mean Ol'Frisco Blues
TTITLE20=Big Maceo - Worried Life Blues
TTITLE21=Leroy Carr - Blues Before Sunrise
TTITLE22=Blind Willie Johnson - Jesus Is Coming Soon
TTITLE23=Robert Johnson - Ramblin' on my Mind
EXTD=
EXTT0=
EXTT1=
EXTT2=
EXTT3=
EXTT4=
EXTT5=
EXTT6=
EXTT7=
EXTT8=
EXTT9=
EXTT10=
EXTT11=
EXTT12=
EXTT13=
EXTT14=
EXTT15=
EXTT16=
EXTT17=
EXTT18=
EXTT19=
EXTT20=
EXTT21=
EXTT22=
EXTT23=
PLAYORDER=
